<?xml version="1.0" encoding="UTF-8"?>
<!DOCTYPE svg PUBLIC "-//W3C//DTD SVG 1.1//EN" "http://www.w3.org/Graphics/SVG/1.1/DTD/svg11.dtd">
<svg xmlns="http://www.w3.org/2000/svg" version="1.1" width="2911px" height="1812px" style="shape-rendering:geometricPrecision; text-rendering:geometricPrecision; image-rendering:optimizeQuality; fill-rule:evenodd; clip-rule:evenodd" xmlns:xlink="http://www.w3.org/1999/xlink">
<g><path style="opacity:0.999" fill="#4cb753" d="M 1844.5,1411.5 C 1837.2,1399.45 1832.37,1386.45 1830,1372.5C 1829.5,1294.17 1829.33,1215.83 1829.5,1137.5C 1829.5,895.5 1829.5,653.5 1829.5,411.5C 1829.33,334.166 1829.5,256.833 1830,179.5C 1832.64,161.042 1839.81,144.709 1851.5,130.5C 1873.69,106.04 1901.36,95.8737 1934.5,100C 1977.21,108.379 2003.05,133.879 2012,176.5C 2012.67,575.833 2012.67,975.167 2012,1374.5C 2003.91,1414.59 1980.08,1439.76 1940.5,1450C 1900.38,1456.75 1868.38,1443.92 1844.5,1411.5 Z"/></g>
<g><path style="opacity:0.993" fill="#2aaa91" d="M 1851.5,130.5 C 1839.81,144.709 1832.64,161.042 1830,179.5C 1829.5,256.833 1829.33,334.166 1829.5,411.5C 1669.7,570.799 1510.03,730.299 1350.5,890C 1327.57,907.322 1301.9,913.322 1273.5,908C 1239.22,899.719 1216.39,878.885 1205,845.5C 1195.55,810.31 1203.21,779.31 1228,752.5C 1435.4,544.605 1643.23,337.271 1851.5,130.5 Z"/></g>
<g><path style="opacity:0.991" fill="#e17919" d="M 1081.5,589.5 C 1081.67,512.833 1081.5,436.166 1081,359.5C 1071.02,310.02 1040.85,283.354 990.5,279.5C 983.13,279.838 975.796,280.505 968.5,281.5C 998.085,273.878 1025.08,279.378 1049.5,298C 1108,356.5 1166.5,415 1225,473.5C 1245.57,501.273 1250.24,531.607 1239,564.5C 1225.18,596.649 1201.01,615.816 1166.5,622C 1132.45,625.822 1104.12,614.988 1081.5,589.5 Z"/></g>
<g><path style="opacity:1" fill="#f7951b" d="M 1081.5,589.5 C 1081.5,832.833 1081.5,1076.17 1081.5,1319.5C 1029.2,1372.3 976.701,1424.97 924,1477.5C 899.119,1506.24 893.119,1538.58 906,1574.5C 913.701,1591.36 924.868,1605.36 939.5,1616.5C 917.089,1601.87 903.589,1581.21 899,1554.5C 898.333,1155.17 898.333,755.833 899,356.5C 906.811,317.191 929.978,292.191 968.5,281.5C 975.796,280.505 983.13,279.838 990.5,279.5C 1040.85,283.354 1071.02,310.02 1081,359.5C 1081.5,436.166 1081.67,512.833 1081.5,589.5 Z"/></g>
<g><path style="opacity:0.996" fill="#df1e26" d="M 966.5,1628.5 C 962.767,1626.59 958.767,1625.26 954.5,1624.5C 951.485,1622.33 948.151,1620.66 944.5,1619.5C 943.341,1617.75 941.674,1616.75 939.5,1616.5C 924.868,1605.36 913.701,1591.36 906,1574.5C 893.119,1538.58 899.119,1506.24 924,1477.5C 976.701,1424.97 1029.2,1372.3 1081.5,1319.5C 1240.97,1160.53 1400.3,1001.37 1559.5,842C 1590.02,820.159 1622.68,816.492 1657.5,831C 1695.16,852.058 1711.99,884.225 1708,927.5C 1705.48,943.868 1699.15,958.534 1689,971.5C 1475.5,1185 1262,1398.5 1048.5,1612C 1023.71,1630.52 996.376,1636.02 966.5,1628.5 Z"/></g>
<g><path style="opacity:0.993" fill="#568b4a" d="M 1829.5,1137.5 C 1829.33,1215.83 1829.5,1294.17 1830,1372.5C 1832.37,1386.45 1837.2,1399.45 1844.5,1411.5C 1791.87,1359.37 1739.37,1307.03 1687,1254.5C 1664.98,1223.83 1661.31,1191.16 1676,1156.5C 1699.75,1115.12 1735.25,1098.95 1782.5,1108C 1801.08,1113.29 1816.75,1123.12 1829.5,1137.5 Z"/></g>
<g><path style="opacity:0.553" fill="#f58b1c" d="M 939.5,1616.5 C 941.674,1616.75 943.341,1617.75 944.5,1619.5C 942.326,1619.25 940.659,1618.25 939.5,1616.5 Z"/></g>
<g><path style="opacity:0.392" fill="#f58b1c" d="M 944.5,1619.5 C 948.151,1620.66 951.485,1622.33 954.5,1624.5C 950.58,1623.87 947.247,1622.21 944.5,1619.5 Z"/></g>
<g><path style="opacity:1" fill="#ef6f20" d="M 954.5,1624.5 C 958.767,1625.26 962.767,1626.59 966.5,1628.5C 962.085,1628.14 958.085,1626.81 954.5,1624.5 Z"/></g>
</svg>
