<?xml version="1.0" encoding="UTF-8"?>
<!DOCTYPE svg PUBLIC "-//W3C//DTD SVG 1.1//EN" "http://www.w3.org/Graphics/SVG/1.1/DTD/svg11.dtd">
<svg xmlns="http://www.w3.org/2000/svg" version="1.1" width="2911px" height="1812px" style="shape-rendering:geometricPrecision; text-rendering:geometricPrecision; image-rendering:optimizeQuality; fill-rule:evenodd; clip-rule:evenodd" xmlns:xlink="http://www.w3.org/1999/xlink">
<g><path style="opacity:0.996" fill="#818181" d="M 1909.5,1450.5 C 1908.45,1448.74 1906.78,1448.08 1904.5,1448.5C 1903.5,1448.5 1902.5,1448.5 1901.5,1448.5C 1900.12,1446.4 1898.45,1446.07 1896.5,1447.5C 1896.17,1447.5 1895.83,1447.5 1895.5,1447.5C 1895.42,1446.25 1894.76,1445.42 1893.5,1445C 1888.24,1442.87 1882.91,1441.03 1877.5,1439.5C 1877.17,1439.5 1876.83,1439.5 1876.5,1439.5C 1871.64,1435.71 1866.64,1431.87 1861.5,1428C 1845.77,1412.99 1835.77,1394.82 1831.5,1373.5C 1830.85,1294.35 1830.18,1215.35 1829.5,1136.5C 1829.5,895.167 1829.5,653.833 1829.5,412.5C 1830.18,332.98 1830.84,253.313 1831.5,173.5C 1832.6,165.745 1834.94,158.411 1838.5,151.5C 1839.81,148.872 1841.15,146.205 1842.5,143.5C 1845.58,138.346 1848.91,133.346 1852.5,128.5C 1865.97,112.818 1882.97,102.984 1903.5,99C 1948.44,92.8338 1982.11,109.167 2004.5,148C 2007.62,155.681 2010.12,163.515 2012,171.5C 2012.67,573.167 2012.67,974.833 2012,1376.5C 2002.49,1416.51 1977.65,1440.85 1937.5,1449.5C 1928.19,1450.5 1918.86,1450.83 1909.5,1450.5 Z"/></g>
<g><path style="opacity:0.985" fill="#696969" d="M 1852.5,128.5 C 1848.91,133.346 1845.58,138.346 1842.5,143.5C 1839.47,145.202 1838.14,147.869 1838.5,151.5C 1834.94,158.411 1832.6,165.745 1831.5,173.5C 1830.88,173.611 1830.38,173.944 1830,174.5C 1829.5,253.833 1829.33,333.166 1829.5,412.5C 1670.55,570.785 1511.88,729.452 1353.5,888.5C 1324.71,911.888 1292.21,916.888 1256,903.5C 1210.99,879.703 1193.49,842.703 1203.5,792.5C 1207.71,779.68 1214.05,768.013 1222.5,757.5C 1432.3,547.488 1642.3,337.821 1852.5,128.5 Z"/></g>
<g><path style="opacity:1" fill="#717171" d="M 1842.5,143.5 C 1841.15,146.205 1839.81,148.872 1838.5,151.5C 1838.14,147.869 1839.47,145.202 1842.5,143.5 Z"/></g>
<g><path style="opacity:0.994" fill="#717171" d="M 1831.5,173.5 C 1830.84,253.313 1830.18,332.98 1829.5,412.5C 1829.33,333.166 1829.5,253.833 1830,174.5C 1830.38,173.944 1830.88,173.611 1831.5,173.5 Z"/></g>
<g><path style="opacity:0.977" fill="#7d7d7d" d="M 1080.5,589.5 C 1079.67,513.001 1079.17,436.334 1079,359.5C 1071.21,314.373 1044.71,287.873 999.5,280C 987.849,278.885 976.349,279.719 965,282.5C 963.93,282.472 963.097,282.139 962.5,281.5C 994.34,271.928 1023.34,277.095 1049.5,297C 1109.57,355.947 1169.07,415.447 1228,475.5C 1239.56,491.967 1245.39,510.3 1245.5,530.5C 1242.39,578.398 1217.72,608.731 1171.5,621.5C 1134.78,627.431 1104.61,616.431 1081,588.5C 1080.6,588.728 1080.43,589.062 1080.5,589.5 Z"/></g>
<g><path style="opacity:0.997" fill="#888888" d="M 1080.5,589.5 C 1080.5,832.5 1080.5,1075.5 1080.5,1318.5C 1079.7,1319.95 1079.2,1321.62 1079,1323.5C 1026,1376.5 973,1429.5 920,1482.5C 891.039,1522.4 891.706,1561.73 922,1600.5C 929.437,1607.78 937.27,1614.45 945.5,1620.5C 943.692,1620.51 942.025,1620.01 940.5,1619C 917.695,1604.52 903.528,1584.02 898,1557.5C 897.333,1155.83 897.333,754.167 898,352.5C 906.22,316.7 927.72,293.033 962.5,281.5C 963.097,282.139 963.93,282.472 965,282.5C 976.349,279.719 987.849,278.885 999.5,280C 1044.71,287.873 1071.21,314.373 1079,359.5C 1079.17,436.334 1079.67,513.001 1080.5,589.5 Z"/></g>
<g><path style="opacity:0.987" fill="#7e7e7e" d="M 945.5,1620.5 C 937.27,1614.45 929.437,1607.78 922,1600.5C 891.706,1561.73 891.039,1522.4 920,1482.5C 973,1429.5 1026,1376.5 1079,1323.5C 1079.2,1321.62 1079.7,1319.95 1080.5,1318.5C 1080.43,1318.94 1080.6,1319.27 1081,1319.5C 1231.83,1167.67 1383,1016.17 1534.5,865C 1542.32,858.35 1549.65,851.183 1556.5,843.5C 1585.22,819.838 1617.72,814.838 1654,828.5C 1703.08,855.361 1719.41,895.694 1703,949.5C 1698.19,959.147 1692.36,968.147 1685.5,976.5C 1475.14,1186.19 1265.14,1396.19 1055.5,1606.5C 1025.39,1634.19 991.22,1640.52 953,1625.5C 950.138,1624.09 947.638,1622.42 945.5,1620.5 Z"/></g>
<g><path style="opacity:0.98" fill="#696969" d="M 1829.5,1137.5 C 1828.84,1216.51 1829.5,1295.17 1831.5,1373.5C 1835.77,1394.82 1845.77,1412.99 1861.5,1428C 1866.64,1431.87 1871.64,1435.71 1876.5,1439.5C 1868.65,1435.41 1861.32,1430.58 1854.5,1425C 1854.83,1424.67 1855.17,1424.33 1855.5,1424C 1800.33,1369.83 1745.5,1315.33 1691,1260.5C 1664.63,1230.24 1658.96,1196.24 1674,1158.5C 1697.8,1114.93 1734.3,1097.93 1783.5,1107.5C 1801.88,1113.01 1817.21,1123.01 1829.5,1137.5 Z"/></g>
<g><path style="opacity:0.998" fill="#717171" d="M 1829.5,1136.5 C 1830.18,1215.35 1830.85,1294.35 1831.5,1373.5C 1829.5,1295.17 1828.84,1216.51 1829.5,1137.5C 1829.5,1137.17 1829.5,1136.83 1829.5,1136.5 Z"/></g>
<g><path style="opacity:0.447" fill="#747474" d="M 1877.5,1439.5 C 1882.91,1441.03 1888.24,1442.87 1893.5,1445C 1894.76,1445.42 1895.42,1446.25 1895.5,1447.5C 1888.75,1446.15 1882.75,1443.49 1877.5,1439.5 Z"/></g>
<g><path style="opacity:0.247" fill="#757575" d="M 1896.5,1447.5 C 1898.45,1446.07 1900.12,1446.4 1901.5,1448.5C 1899.71,1448.63 1898.04,1448.3 1896.5,1447.5 Z"/></g>
<g><path style="opacity:0.301" fill="#797979" d="M 1904.5,1448.5 C 1906.78,1448.08 1908.45,1448.74 1909.5,1450.5C 1907.22,1450.92 1905.55,1450.26 1904.5,1448.5 Z"/></g>
</svg>
