<?xml version="1.0" encoding="UTF-8"?>
<!DOCTYPE svg PUBLIC "-//W3C//DTD SVG 1.1//EN" "http://www.w3.org/Graphics/SVG/1.1/DTD/svg11.dtd">
<svg xmlns="http://www.w3.org/2000/svg" version="1.1" width="2911px" height="1812px" style="shape-rendering:geometricPrecision; text-rendering:geometricPrecision; image-rendering:optimizeQuality; fill-rule:evenodd; clip-rule:evenodd" xmlns:xlink="http://www.w3.org/1999/xlink">
<g><path style="opacity:0.991" fill="#fefffe" d="M 1903.5,98.5 C 1945.02,93.1893 1977.52,107.523 2001,141.5C 2006.28,150.939 2009.95,160.939 2012,171.5C 2012.67,573.167 2012.67,974.833 2012,1376.5C 2002.49,1416.51 1977.65,1440.85 1937.5,1449.5C 1911.68,1453.23 1888.02,1448.06 1866.5,1434C 1850.95,1420.58 1835.95,1405.91 1821.5,1390C 1777.86,1346.94 1734.36,1303.77 1691,1260.5C 1664.63,1230.24 1658.96,1196.24 1674,1158.5C 1697.8,1114.93 1734.3,1097.93 1783.5,1107.5C 1801.78,1112.88 1816.95,1122.88 1829,1137.5C 1829.67,895.833 1829.67,654.167 1829,412.5C 1678.83,563 1528.67,713.5 1378.5,864C 1368,874.5 1357.17,884.666 1346,894.5C 1326.13,907.664 1303.63,912.831 1278.5,910C 1241.52,902.346 1216.69,880.846 1204,845.5C 1195.63,813.012 1201.79,783.679 1222.5,757.5C 1434.51,545.957 1646.18,334.124 1857.5,122C 1870.89,110.139 1886.22,102.305 1903.5,98.5 Z"/></g>
<g><path style="opacity:0.991" fill="#fefffe" d="M 976.5,277.5 C 1007.35,273.698 1034.02,282.198 1056.5,303C 1113.96,360.159 1171.12,417.659 1228,475.5C 1242.58,496.605 1248.08,519.939 1244.5,545.5C 1238.1,578.061 1219.93,601.394 1190,615.5C 1147.15,631.178 1110.81,622.178 1081,588.5C 1080.33,832.167 1080.33,1075.83 1081,1319.5C 1231.83,1167.67 1383,1016.17 1534.5,865C 1542.32,858.35 1549.65,851.183 1556.5,843.5C 1585.22,819.838 1617.72,814.838 1654,828.5C 1703.08,855.361 1719.41,895.694 1703,949.5C 1698.19,959.147 1692.36,968.147 1685.5,976.5C 1475.14,1186.19 1265.14,1396.19 1055.5,1606.5C 1028.22,1631.64 996.724,1638.97 961,1628.5C 927.223,1616.06 906.223,1592.4 898,1557.5C 897.333,1155.83 897.333,754.167 898,352.5C 904.435,323.267 920.768,301.6 947,287.5C 956.559,283.071 966.392,279.738 976.5,277.5 Z"/></g>
</svg>
