<?xml version="1.0" encoding="UTF-8"?>
<!DOCTYPE svg PUBLIC "-//W3C//DTD SVG 1.1//EN" "http://www.w3.org/Graphics/SVG/1.1/DTD/svg11.dtd">
<svg xmlns="http://www.w3.org/2000/svg" version="1.1" width="2911px" height="1812px" style="shape-rendering:geometricPrecision; text-rendering:geometricPrecision; image-rendering:optimizeQuality; fill-rule:evenodd; clip-rule:evenodd" xmlns:xlink="http://www.w3.org/1999/xlink">
<g><path style="opacity:0.997" fill="#020202" d="M 1907.5,99.5 C 1948.98,95.6547 1980.48,111.321 2002,146.5C 2006.93,155.958 2010.26,165.958 2012,176.5C 2012.67,575.833 2012.67,975.167 2012,1374.5C 2003.17,1416.67 1977.67,1442.17 1935.5,1451C 1898.35,1455.41 1868.52,1442.91 1846,1413.5C 1793,1360.5 1740,1307.5 1687,1254.5C 1664.98,1223.83 1661.31,1191.16 1676,1156.5C 1699.75,1115.12 1735.25,1098.95 1782.5,1108C 1800.99,1113.16 1816.49,1122.99 1829,1137.5C 1829.67,895.5 1829.67,653.5 1829,411.5C 1669.5,571 1510,730.5 1350.5,890C 1327.57,907.322 1301.9,913.322 1273.5,908C 1239.22,899.719 1216.39,878.885 1205,845.5C 1195.55,810.31 1203.21,779.31 1228,752.5C 1438.86,541.306 1650.03,330.473 1861.5,120C 1875.12,109.187 1890.46,102.354 1907.5,99.5 Z"/></g>
<g><path style="opacity:0.997" fill="#000000" d="M 978.5,278.5 C 1004.85,275.567 1028.52,282.067 1049.5,298C 1108,356.5 1166.5,415 1225,473.5C 1244.22,499.111 1249.55,527.445 1241,558.5C 1228.26,593.796 1203.42,614.963 1166.5,622C 1132.58,625.918 1104.41,615.085 1082,589.5C 1081.33,832.833 1081.33,1076.17 1082,1319.5C 1241.17,1160.33 1400.33,1001.17 1559.5,842C 1582.38,824.53 1608.05,818.53 1636.5,824C 1676.53,834.365 1700.37,859.865 1708,900.5C 1711.43,926.86 1705.1,950.527 1689,971.5C 1475.5,1185 1262,1398.5 1048.5,1612C 1020.38,1632.68 989.712,1637.35 956.5,1626C 924.809,1612.3 905.642,1588.47 899,1554.5C 898.333,1155.17 898.333,755.833 899,356.5C 908.546,313.12 935.046,287.12 978.5,278.5 Z"/></g>
</svg>
